<svg width="43" height="44" viewBox="0 0 43 44" fill="none" xmlns="http://www.w3.org/2000/svg">
<path d="M1.6965 8.63882C2.80329 6.80473 4.2421 5.2078 6.01295 3.84804C7.81542 2.45666 9.74439 1.42893 11.7998 0.764863C12.6536 0.480262 13.5707 0.274718 14.551 0.14823C15.5629 -0.0098813 16.6064 -0.0415042 17.6816 0.0533616C18.7568 0.148229 19.6106 0.527697 20.243 1.19176C20.8754 1.82421 21.1284 2.74126 21.0019 3.94291C20.9387 4.73347 20.7173 5.50821 20.3379 6.26715C19.99 6.99446 19.5157 7.69015 18.9149 8.35422C18.3457 9.01829 17.7765 9.61911 17.2073 10.1567C16.6697 10.6627 16.0214 11.2477 15.2625 11.9117C14.5352 12.5442 13.966 13.0818 13.5549 13.5245C13.2703 13.8091 12.8434 13.8407 12.2742 13.6193C11.9579 13.4296 11.8789 13.2241 12.037 13.0027C12.4165 12.5916 12.875 12.1489 13.4126 11.6746C13.9502 11.2002 14.4719 10.7259 14.9779 10.2516C15.5155 9.7456 15.974 9.30289 16.3535 8.92342C18.1875 7.02609 19.1362 5.28686 19.1995 3.70574C19.2311 2.63058 18.9307 1.88746 18.2982 1.47637C17.6658 1.03366 16.8594 0.907166 15.8791 1.0969C14.9305 1.25501 14.0134 1.49218 13.128 1.8084C12.2742 2.12462 11.531 2.47247 10.8986 2.85194C8.02097 4.62279 6.2185 7.38974 5.49118 11.1528C5.14334 12.9869 5.19077 14.7894 5.63348 16.5602C6.10782 18.3311 7.02487 19.7066 8.38463 20.6869C9.01707 21.1296 9.77601 21.4933 10.6614 21.7779C11.2623 21.9676 11.9896 22.1257 12.8434 22.2522C13.792 22.3787 15.8475 22.4103 19.0097 22.3471C20.1165 22.3155 20.8913 22.6001 21.334 23.2009C21.5237 23.5171 21.5553 23.8333 21.4288 24.1496C21.334 24.4342 21.1284 24.6555 20.8122 24.8136C18.4089 25.9204 15.9107 27.6438 13.3177 29.9839C12.2742 30.9642 11.3413 31.9287 10.5191 32.8773C9.44397 34.1738 9.20681 35.1541 9.80763 35.8182C10.2503 36.3558 11.1516 36.4981 12.5113 36.2451C13.46 36.0554 14.7407 35.4387 16.3535 34.3952C20.6857 31.5176 24.2274 27.7071 26.9786 22.9637C27.1683 22.6475 27.5478 22.5685 28.117 22.7266C28.4648 22.8214 28.5755 22.9795 28.449 23.2009C26.7098 26.2366 24.6069 28.9404 22.1403 31.312C19.5157 33.8418 17.065 35.6285 14.7881 36.672C11.0883 38.348 8.32138 38.3006 6.48729 36.5297C6.01295 36.0238 5.74416 35.4704 5.68092 34.8695C5.61767 34.2687 5.66511 33.7153 5.82322 33.2094C6.01295 32.735 6.3608 32.1658 6.86676 31.5018C7.40434 30.8377 7.81542 30.3634 8.10003 30.0788C8.41625 29.7625 8.84315 29.3356 9.38073 28.7981C10.3926 27.7861 11.5785 26.79 12.9382 25.8097C13.0331 25.7149 13.1754 25.6042 13.3651 25.4777C12.3216 25.3828 11.2939 25.2405 10.282 25.0508C6.96162 24.4184 4.46346 23.2483 2.78747 21.5407C1.11149 19.8331 0.194444 17.7619 0.036332 15.3269C-0.153402 12.8604 0.399989 10.631 1.6965 8.63882Z" fill="black"/>
<path d="M32.1684 28.4186C32.6744 28.1656 33.8286 27.5964 35.6311 26.711C36.9276 26.0785 37.9711 25.5568 38.7617 25.1457C39.2044 24.8927 39.5364 24.703 39.7578 24.5765C40.0108 24.45 40.2796 24.2444 40.5642 23.9598C40.8804 23.6436 41.1176 23.3116 41.2757 22.9637C41.3389 22.8056 41.497 22.7108 41.75 22.6791C42.0346 22.6159 42.2876 22.6317 42.5089 22.7266C42.7303 22.8214 42.8094 22.9795 42.7461 23.2009C42.5248 24.0231 41.8449 24.7504 40.7065 25.3828C40.2005 25.6991 39.1886 26.2366 37.6707 26.9956C34.4453 28.6083 32.5953 29.5412 32.121 29.7942C32.121 30.3001 32.1052 30.7428 32.0736 31.1223C31.8838 34.664 31.3937 37.3045 30.6031 39.0437C30.0339 40.2137 29.2276 41.1782 28.184 41.9371C27.1721 42.6961 26.0495 43.0597 24.8163 43.0281C24.1206 43.0281 23.4565 42.8858 22.824 42.6012C22.1916 42.3482 21.654 41.9529 21.2113 41.4154C20.7686 40.8778 20.4998 40.277 20.4049 39.6129C20.3101 39.0753 20.3417 38.5377 20.4998 38.0002C20.6579 37.4942 20.9425 36.9724 21.3536 36.4348C21.7331 35.9289 22.0809 35.5178 22.3971 35.2016C22.6817 34.917 23.077 34.5375 23.583 34.0632C24.6265 33.0829 25.844 32.1342 27.2354 31.2172C27.2354 29.9523 27.2196 28.6241 27.1879 27.2327C27.1563 25.8097 27.0931 24.2286 26.9982 22.4894C26.9033 20.7502 26.8401 19.4062 26.8085 18.4576C26.5871 11.1844 26.4922 5.87187 26.5239 2.5199C26.5239 1.88746 26.935 1.44474 27.7571 1.19176C28.6109 0.938788 29.4489 0.938788 30.2711 1.19176C31.1249 1.44474 31.5676 1.88746 31.5992 2.5199C31.8206 5.87187 31.9945 12.5284 32.121 22.4894C32.1843 25.2089 32.2001 27.1853 32.1684 28.4186ZM25.9072 40.609C26.2551 40.0398 26.5239 39.3283 26.7136 38.4745C26.935 37.6207 27.0614 36.9566 27.0931 36.4823C27.1247 36.0079 27.1563 35.249 27.1879 34.2055C27.2196 33.7944 27.2354 33.32 27.2354 32.7825C26.6978 33.1936 26.2234 33.573 25.8124 33.9209C25.2432 34.3952 24.8321 34.7589 24.5791 35.0118C24.2945 35.2648 23.915 35.6443 23.4407 36.1502C22.9663 36.6562 22.6343 37.1463 22.4446 37.6207C22.2232 38.1266 22.1125 38.6168 22.1125 39.0911C22.1442 39.6287 22.3023 40.1347 22.5869 40.609C22.8399 41.1149 23.2035 41.4786 23.6779 41.7C24.5 42.0478 25.2432 41.6842 25.9072 40.609Z" fill="black"/>
</svg>
