<svg width="148" height="156" viewBox="0 0 148 156" fill="none" xmlns="http://www.w3.org/2000/svg">
<path d="M16.7228 44.8441C3.09768 70.4103 5.3027 103.901 25.8727 124.91M120.489 32.9858C140.382 53.7483 146.704 83.5238 129.639 113.052" stroke="#1E1E1E"/>
<path d="M23.4219 43.2819L16.0109 37.5362L19.7478 32.7161L20.8732 33.5887L18.1771 37.0662L20.1891 38.6261L22.6916 35.3982L23.817 36.2707L21.3145 39.4986L23.3373 41.0669L26.0559 37.5604L27.1813 38.4329L23.4219 43.2819Z" fill="#1E1E1E"/>
<path d="M27.5886 32.1322L30.4352 35.1119L29.2366 36.2569L24.3784 31.1714L25.524 30.0771L26.3495 30.9412L26.4091 30.8843C26.2541 30.4878 26.2244 30.0833 26.3202 29.671C26.4182 29.2565 26.657 28.868 27.0367 28.5053C27.3876 28.17 27.765 27.953 28.1689 27.8543C28.5749 27.7535 28.9857 27.7769 29.4012 27.9246C29.8189 28.0702 30.2206 28.3471 30.6064 28.7553L33.6997 31.9933L32.5011 33.1383L29.5849 30.0857C29.2602 29.7458 28.9178 29.5641 28.5578 29.5408C28.2 29.5153 27.8666 29.6502 27.5576 29.9454C27.3479 30.1457 27.2057 30.3703 27.1309 30.619C27.0562 30.8634 27.0547 31.116 27.1265 31.3767C27.2005 31.6353 27.3545 31.8872 27.5886 32.1322Z" fill="#1E1E1E"/>
<path d="M42.3995 19.8804L41.1877 20.7979C41.0727 20.6889 40.9348 20.6042 40.7742 20.5439C40.6161 20.4819 40.44 20.4611 40.2457 20.4813C40.0515 20.5015 39.8444 20.5775 39.6244 20.7092C39.3284 20.8864 39.118 21.0995 38.9932 21.3485C38.8709 21.596 38.8723 21.8211 38.9972 22.0239C39.0996 22.2009 39.2492 22.3052 39.446 22.3369C39.6455 22.3669 39.9196 22.3256 40.2683 22.2128L41.4293 21.8167C42.074 21.598 42.6151 21.5391 43.0527 21.6401C43.4928 21.7395 43.8436 22.0044 44.1049 22.435C44.3296 22.8164 44.419 23.2183 44.373 23.6407C44.3281 24.0589 44.1604 24.4653 43.87 24.8597C43.5796 25.2541 43.1829 25.6018 42.6801 25.9029C41.9415 26.345 41.2544 26.5464 40.6189 26.507C39.9818 26.465 39.4539 26.1922 39.0351 25.6887L40.342 24.725C40.5679 24.9597 40.8245 25.0854 41.1119 25.1019C41.3993 25.1184 41.7067 25.0287 42.0341 24.8327C42.372 24.6304 42.6015 24.3988 42.7227 24.1376C42.8465 23.875 42.8472 23.6415 42.725 23.4372C42.6215 23.2643 42.4692 23.1616 42.2682 23.1289C42.0699 23.0947 41.8138 23.1305 41.5001 23.2365L40.3415 23.6366C39.6905 23.8626 39.1408 23.916 38.6923 23.7967C38.2422 23.6748 37.8867 23.393 37.626 22.9514C37.4007 22.5811 37.3087 22.1986 37.3499 21.8039C37.3922 21.405 37.552 21.0212 37.8293 20.6524C38.1077 20.2794 38.4878 19.9487 38.9697 19.6602C39.6769 19.2369 40.3236 19.0543 40.9099 19.1125C41.4988 19.1691 41.9953 19.4251 42.3995 19.8804Z" fill="#1E1E1E"/>
<path d="M49.3301 22.5391C48.9201 22.7139 48.5198 22.7984 48.129 22.7924C47.7398 22.7825 47.3881 22.6736 47.0738 22.4658C46.7624 22.2568 46.5162 21.9403 46.3355 21.5163C46.1798 21.1513 46.1185 20.8207 46.1515 20.5245C46.1845 20.2284 46.287 19.959 46.459 19.7164C46.631 19.4739 46.8475 19.2538 47.1084 19.0563C47.3709 18.8548 47.6522 18.6701 47.9523 18.5023C48.3146 18.3014 48.6072 18.1352 48.8298 18.0037C49.0514 17.8694 49.2011 17.7459 49.2791 17.633C49.3586 17.5161 49.3673 17.3846 49.305 17.2386L49.2943 17.2134C49.159 16.8961 48.9601 16.6905 48.6978 16.5966C48.4354 16.5027 48.1273 16.5312 47.7735 16.6821C47.4001 16.8413 47.1386 17.049 46.989 17.3053C46.8422 17.5603 46.7782 17.8149 46.797 18.0691L45.2871 18.4739C45.2318 18.0329 45.2771 17.6254 45.4229 17.2513C45.5675 16.8744 45.7983 16.5403 46.1155 16.2491C46.4315 15.9551 46.8156 15.7117 47.2676 15.5189C47.5793 15.386 47.9052 15.2903 48.2452 15.2316C48.5852 15.1729 48.9189 15.1733 49.2462 15.2328C49.5724 15.2895 49.8737 15.4282 50.1503 15.6487C50.4297 15.8681 50.6609 16.1926 50.8441 16.6222L52.6903 20.9521L51.2246 21.577L50.8456 20.6883L50.7951 20.7099C50.779 20.9291 50.7203 21.1532 50.6189 21.3823C50.5191 21.6074 50.3631 21.8216 50.1511 22.0248C49.9407 22.224 49.6671 22.3954 49.3301 22.5391ZM49.2483 21.2499C49.5544 21.1194 49.794 20.9459 49.9671 20.7294C50.1391 20.5101 50.2424 20.2736 50.2769 20.0199C50.3142 19.7651 50.282 19.5183 50.1803 19.2796L49.8552 18.5173C49.8242 18.5769 49.7584 18.6481 49.6576 18.7309C49.5597 18.8125 49.4459 18.8959 49.3162 18.981C49.1866 19.0661 49.0572 19.1479 48.928 19.2262C48.7988 19.3045 48.6866 19.3722 48.5915 19.4294C48.3773 19.5573 48.1952 19.6946 48.0455 19.8414C47.8957 19.9882 47.7958 20.147 47.7458 20.3176C47.6945 20.4855 47.7108 20.6677 47.7947 20.8643C47.9144 21.1451 48.1073 21.3134 48.3733 21.3692C48.6393 21.425 48.931 21.3852 49.2483 21.2499Z" fill="#1E1E1E"/>
<path d="M59.7443 11.6311L59.1509 19.0733L57.3821 19.5486L53.138 13.4066L54.8448 12.9479L57.7617 17.5738L57.8325 17.5548L58.0419 12.0887L59.7443 11.6311Z" fill="#1E1E1E"/>
<path d="M67.0023 17.8356C66.3203 17.9164 65.7114 17.8364 65.1757 17.5956C64.6399 17.3547 64.2022 16.9808 63.8624 16.4739C63.5257 15.9667 63.3146 15.3523 63.2291 14.6308C63.1436 13.9094 63.2052 13.2612 63.4137 12.6863C63.6253 12.111 63.9634 11.6436 64.428 11.2843C64.8926 10.9249 65.4659 10.7048 66.148 10.624C66.8301 10.5432 67.439 10.6233 67.9747 10.8641C68.5104 11.105 68.9468 11.4805 69.2839 11.9908C69.6241 12.5008 69.8369 13.1165 69.9223 13.8379C70.0078 14.5594 69.9446 15.2062 69.7326 15.7785C69.5237 16.3504 69.187 16.816 68.7224 17.1754C68.2577 17.5347 67.6844 17.7548 67.0023 17.8356ZM66.8552 16.5159C67.225 16.4721 67.5222 16.3339 67.7467 16.1014C67.9709 15.8658 68.1231 15.568 68.2034 15.2081C68.2868 14.8478 68.3033 14.4555 68.253 14.0311C68.2024 13.6036 68.0945 13.2245 67.9292 12.8937C67.7667 12.5594 67.5489 12.304 67.2759 12.1273C67.0029 11.9506 66.6815 11.8841 66.3117 11.928C65.9328 11.9728 65.6297 12.1133 65.4025 12.3492C65.1784 12.5848 65.0248 12.8842 64.9418 13.2476C64.8615 13.6075 64.8467 14.0012 64.8973 14.4286C64.9476 14.853 65.0538 15.2308 65.216 15.562C65.3812 15.8929 65.6004 16.1466 65.8733 16.3233C66.149 16.4966 66.4763 16.5608 66.8552 16.5159Z" fill="#1E1E1E"/>
<path d="M73.1903 17.3189L73.2038 10.2858L74.8613 10.289L74.8479 17.3221L73.1903 17.3189ZM74.0391 9.28926C73.7765 9.28876 73.5508 9.20133 73.3619 9.02697C73.173 8.84956 73.0788 8.63723 73.0792 8.38997C73.0797 8.13966 73.1747 7.92769 73.3643 7.75406C73.5539 7.57737 73.78 7.48928 74.0425 7.48979C74.3081 7.4903 74.5338 7.57925 74.7197 7.75666C74.9086 7.93102 75.0028 8.14335 75.0023 8.39366C75.0019 8.64091 74.9068 8.85288 74.7172 9.02957C74.5307 9.20321 74.3046 9.28977 74.0391 9.28926Z" fill="#1E1E1E"/>
<path d="M78.7774 17.5048L79.4872 10.5077L81.0862 10.6699L80.9679 11.8361L81.0408 11.8435C81.2093 11.4525 81.4595 11.1634 81.7915 10.9761C82.1268 10.7862 82.4949 10.7115 82.8957 10.7522C82.9868 10.7614 83.0881 10.7763 83.1996 10.7968C83.3144 10.8146 83.4089 10.8349 83.4833 10.8578L83.3294 12.3748C83.2621 12.3434 83.1534 12.3109 83.0034 12.2772C82.8567 12.2409 82.7135 12.2156 82.5738 12.2015C82.2732 12.171 81.9963 12.2088 81.7431 12.3151C81.4933 12.4186 81.2885 12.5773 81.1287 12.7912C80.9689 13.0052 80.874 13.2609 80.8438 13.5585L80.4265 17.6721L78.7774 17.5048Z" fill="#1E1E1E"/>
<path d="M89.4684 22.0006L92.4354 12.7965L93.9868 13.2966L93.63 14.4035L93.7215 14.433C93.8553 14.2966 94.0258 14.1607 94.233 14.0254C94.4411 13.8872 94.6926 13.7935 94.9875 13.7443C95.2834 13.6921 95.6274 13.7292 96.0196 13.8557C96.5368 14.0224 96.9605 14.3049 97.2907 14.7032C97.6248 15.0995 97.831 15.5941 97.9092 16.1871C97.9914 16.778 97.9125 17.4454 97.6728 18.1891C97.4359 18.9242 97.1139 19.51 96.707 19.9465C96.3001 20.383 95.8454 20.6694 95.3428 20.8056C94.8402 20.9419 94.326 20.9253 93.8002 20.7558C93.4167 20.6322 93.1191 20.4657 92.9076 20.2564C92.696 20.0471 92.5423 19.8275 92.4464 19.5977C92.3543 19.366 92.2923 19.1552 92.2605 18.9654L92.1952 18.9443L91.046 22.5091L89.4684 22.0006ZM92.9036 16.6421C92.764 17.075 92.7028 17.4739 92.72 17.8386C92.74 18.2043 92.8367 18.5161 93.0102 18.774C93.1874 19.03 93.4431 19.2119 93.7772 19.3196C94.1259 19.4319 94.4478 19.4331 94.7431 19.323C95.0393 19.21 95.2994 19.01 95.5234 18.723C95.7513 18.4341 95.9326 18.0804 96.0675 17.662C96.2014 17.2466 96.2608 16.8584 96.2456 16.4975C96.2305 16.1366 96.1347 15.8267 95.9584 15.5678C95.7821 15.3089 95.5181 15.1228 95.1666 15.0095C94.8296 14.9009 94.5148 14.8972 94.2224 14.9986C93.9299 15.1 93.6712 15.2908 93.4461 15.571C93.224 15.8522 93.0431 16.2092 92.9036 16.6421Z" fill="#1E1E1E"/>
<path d="M104.425 14.8471L100.501 23.3643L98.9959 22.6708L102.919 14.1536L104.425 14.8471Z" fill="#1E1E1E"/>
<path d="M109.329 24.9279L111.465 21.4569L112.876 22.3254L109.191 28.3157L107.822 27.4736L108.477 26.4089L108.415 26.3706C108.074 26.6228 107.682 26.7603 107.242 26.7832C106.804 26.8077 106.36 26.6815 105.91 26.4048C105.518 26.1633 105.224 25.8627 105.03 25.503C104.84 25.1422 104.763 24.7422 104.8 24.3028C104.839 23.8609 105.006 23.4007 105.3 22.9223L107.647 19.1081L109.058 19.9766L106.846 23.5724C106.613 23.952 106.531 24.3175 106.602 24.6691C106.672 25.0207 106.876 25.3004 107.214 25.5083C107.422 25.6363 107.655 25.7095 107.912 25.7281C108.17 25.7467 108.423 25.6942 108.671 25.5708C108.923 25.4464 109.142 25.2321 109.329 24.9279Z" fill="#1E1E1E"/>
<path d="M119.224 29.7556L117.955 28.9183C118.02 28.7736 118.054 28.6154 118.057 28.4438C118.063 28.2741 118.024 28.1011 117.94 27.9247C117.857 27.7482 117.716 27.5782 117.519 27.4146C117.253 27.1945 116.982 27.0671 116.706 27.0323C116.432 26.9994 116.22 27.0756 116.07 27.2609C115.937 27.4164 115.889 27.5922 115.924 27.7883C115.963 27.9864 116.093 28.2311 116.315 28.5224L117.075 29.4853C117.496 30.0204 117.732 30.5111 117.782 30.9573C117.835 31.4054 117.702 31.8244 117.383 32.2141C117.098 32.553 116.749 32.771 116.335 32.8683C115.926 32.9652 115.487 32.9424 115.018 32.7998C114.55 32.6573 114.09 32.399 113.639 32.025C112.976 31.4758 112.557 30.895 112.383 30.2826C112.21 29.6679 112.292 29.0793 112.627 28.5167L113.971 29.4282C113.825 29.7194 113.792 30.0032 113.872 30.2797C113.952 30.5562 114.139 30.8162 114.433 31.0596C114.736 31.3109 115.031 31.4502 115.317 31.4776C115.606 31.5069 115.827 31.4299 115.979 31.2465C116.107 31.0914 116.153 30.9136 116.117 30.7132C116.083 30.5148 115.964 30.2853 115.76 30.0248L114.997 29.0654C114.567 28.5268 114.334 28.0262 114.297 27.5636C114.262 27.0985 114.409 26.6696 114.739 26.2767C115.013 25.941 115.343 25.7269 115.729 25.6343C116.119 25.5414 116.535 25.5643 116.975 25.7031C117.419 25.8414 117.857 26.0897 118.29 26.4481C118.924 26.974 119.312 27.523 119.452 28.0952C119.595 28.6694 119.519 29.2228 119.224 29.7556Z" fill="#1E1E1E"/>
<path d="M122.991 113.383L130.402 119.128L126.665 123.948L125.539 123.076L128.235 119.598L126.223 118.038L123.721 121.266L122.596 120.394L125.098 117.166L123.075 115.598L120.357 119.104L119.231 118.232L122.991 113.383Z" fill="#1E1E1E"/>
<path d="M118.824 124.532L115.977 121.553L117.176 120.408L122.034 125.493L120.889 126.587L120.063 125.723L120.003 125.78C120.158 126.177 120.188 126.581 120.092 126.994C119.994 127.408 119.755 127.797 119.376 128.159C119.025 128.495 118.647 128.712 118.244 128.81C117.838 128.911 117.427 128.888 117.011 128.74C116.594 128.594 116.192 128.317 115.806 127.909L112.713 124.671L113.911 123.526L116.828 126.579C117.152 126.919 117.495 127.1 117.855 127.124C118.213 127.149 118.546 127.014 118.855 126.719C119.065 126.519 119.207 126.294 119.282 126.046C119.356 125.801 119.358 125.549 119.286 125.288C119.212 125.029 119.058 124.777 118.824 124.532Z" fill="#1E1E1E"/>
<path d="M104.013 136.784L105.225 135.867C105.34 135.976 105.478 136.06 105.638 136.121C105.796 136.183 105.973 136.203 106.167 136.183C106.361 136.163 106.568 136.087 106.788 135.955C107.084 135.778 107.295 135.565 107.419 135.316C107.542 135.069 107.54 134.843 107.415 134.641C107.313 134.464 107.163 134.359 106.967 134.328C106.767 134.298 106.493 134.339 106.144 134.452L104.983 134.848C104.339 135.067 103.797 135.125 103.36 135.024C102.92 134.925 102.569 134.66 102.308 134.23C102.083 133.848 101.994 133.446 102.04 133.024C102.084 132.606 102.252 132.199 102.543 131.805C102.833 131.41 103.23 131.063 103.732 130.762C104.471 130.32 105.158 130.118 105.794 130.158C106.431 130.2 106.959 130.472 107.377 130.976L106.071 131.94C105.845 131.705 105.588 131.579 105.301 131.563C105.013 131.546 104.706 131.636 104.378 131.832C104.041 132.034 103.811 132.266 103.69 132.527C103.566 132.79 103.565 133.023 103.688 133.227C103.791 133.4 103.943 133.503 104.144 133.536C104.343 133.57 104.599 133.534 104.912 133.428L106.071 133.028C106.722 132.802 107.272 132.749 107.72 132.868C108.17 132.99 108.526 133.272 108.787 133.713C109.012 134.083 109.104 134.466 109.063 134.861C109.02 135.26 108.861 135.643 108.583 136.012C108.305 136.385 107.925 136.716 107.443 137.004C106.736 137.428 106.089 137.61 105.503 137.552C104.914 137.495 104.417 137.239 104.013 136.784Z" fill="#1E1E1E"/>
<path d="M97.0824 134.125C97.4924 133.951 97.8928 133.866 98.2836 133.872C98.6727 133.882 99.0245 133.991 99.3387 134.199C99.6502 134.408 99.8963 134.724 100.077 135.148C100.233 135.513 100.294 135.844 100.261 136.14C100.228 136.436 100.126 136.706 99.9535 136.948C99.7815 137.191 99.5651 137.411 99.3042 137.608C99.0416 137.81 98.7603 137.994 98.4602 138.162C98.0979 138.363 97.8054 138.529 97.5827 138.661C97.3612 138.795 97.2114 138.919 97.1335 139.032C97.0539 139.148 97.0452 139.28 97.1075 139.426L97.1183 139.451C97.2536 139.768 97.4524 139.974 97.7148 140.068C97.9771 140.162 98.2852 140.133 98.639 139.982C99.0125 139.823 99.274 139.616 99.4236 139.359C99.5703 139.104 99.6343 138.85 99.6156 138.595L101.125 138.191C101.181 138.632 101.135 139.039 100.99 139.413C100.845 139.79 100.614 140.124 100.297 140.415C99.981 140.709 99.597 140.953 99.1449 141.146C98.8332 141.279 98.5074 141.374 98.1674 141.433C97.8274 141.492 97.4937 141.491 97.1663 141.432C96.8402 141.375 96.5388 141.236 96.2622 141.016C95.9829 140.796 95.7516 140.472 95.5684 140.042L93.7222 135.712L95.188 135.088L95.5669 135.976L95.6175 135.955C95.6335 135.735 95.6922 135.511 95.7937 135.282C95.8935 135.057 96.0494 134.843 96.2614 134.64C96.4718 134.441 96.7455 134.269 97.0824 134.125ZM97.1642 135.415C96.8582 135.545 96.6185 135.719 96.4454 135.935C96.2734 136.154 96.1702 136.391 96.1356 136.645C96.0983 136.899 96.1305 137.146 96.2323 137.385L96.5573 138.147C96.5883 138.088 96.6542 138.016 96.7549 137.934C96.8529 137.852 96.9667 137.769 97.0963 137.684C97.2259 137.598 97.3553 137.517 97.4845 137.438C97.6138 137.36 97.7259 137.292 97.821 137.235C98.0353 137.107 98.2173 136.97 98.3671 136.823C98.5169 136.676 98.6168 136.518 98.6668 136.347C98.718 136.179 98.7017 135.997 98.6179 135.8C98.4982 135.519 98.3053 135.351 98.0392 135.295C97.7732 135.24 97.4815 135.279 97.1642 135.415Z" fill="#1E1E1E"/>
<path d="M86.6682 145.033L87.2616 137.591L89.0304 137.116L93.2746 143.258L91.5677 143.717L88.6508 139.091L88.58 139.11L88.3706 144.576L86.6682 145.033Z" fill="#1E1E1E"/>
<path d="M79.4102 138.829C80.0922 138.748 80.7011 138.828 81.2369 139.069C81.7726 139.31 82.2103 139.684 82.5501 140.191C82.8869 140.698 83.098 141.312 83.1834 142.034C83.2689 142.755 83.2074 143.403 82.9988 143.978C82.7873 144.554 82.4492 145.021 81.9845 145.38C81.5199 145.74 80.9466 145.96 80.2645 146.041C79.5825 146.121 78.9736 146.041 78.4379 145.8C77.9021 145.56 77.4657 145.184 77.1286 144.674C76.7885 144.164 76.5757 143.548 76.4902 142.827C76.4047 142.105 76.468 141.458 76.6799 140.886C76.8888 140.314 77.2256 139.849 77.6902 139.489C78.1548 139.13 78.7281 138.91 79.4102 138.829ZM79.5573 140.149C79.1875 140.192 78.8903 140.331 78.6658 140.563C78.4417 140.799 78.2894 141.097 78.2091 141.456C78.1258 141.817 78.1092 142.209 78.1595 142.633C78.2101 143.061 78.3181 143.44 78.4833 143.771C78.6459 144.105 78.8636 144.361 79.1366 144.537C79.4096 144.714 79.731 144.78 80.1008 144.737C80.4798 144.692 80.7828 144.551 81.01 144.315C81.2341 144.08 81.3877 143.78 81.4707 143.417C81.551 143.057 81.5659 142.663 81.5152 142.236C81.4649 141.812 81.3587 141.434 81.1965 141.103C81.0313 140.772 80.8122 140.518 80.5392 140.341C80.2635 140.168 79.9362 140.104 79.5573 140.149Z" fill="#1E1E1E"/>
<path d="M73.2222 139.346L73.2087 146.379L71.5512 146.376L71.5647 139.342L73.2222 139.346ZM72.3735 147.375C72.636 147.376 72.8617 147.463 73.0506 147.638C73.2396 147.815 73.3338 148.027 73.3333 148.275C73.3328 148.525 73.2378 148.737 73.0482 148.91C72.8586 149.087 72.6325 149.175 72.37 149.175C72.1044 149.174 71.8787 149.085 71.6929 148.908C71.5039 148.734 71.4097 148.521 71.4102 148.271C71.4107 148.024 71.5057 147.812 71.6953 147.635C71.8818 147.461 72.1079 147.375 72.3735 147.375Z" fill="#1E1E1E"/>
<path d="M67.6351 139.16L66.9253 146.157L65.3264 145.995L65.4447 144.828L65.3718 144.821C65.2033 145.212 64.953 145.501 64.6211 145.688C64.2858 145.878 63.9177 145.953 63.5168 145.912C63.4257 145.903 63.3244 145.888 63.213 145.868C63.0982 145.85 63.0036 145.83 62.9292 145.807L63.0831 144.29C63.1505 144.321 63.2592 144.354 63.4092 144.387C63.5558 144.424 63.699 144.449 63.8387 144.463C64.1394 144.494 64.4163 144.456 64.6694 144.349C64.9193 144.246 65.1241 144.087 65.2838 143.873C65.4436 143.659 65.5386 143.404 65.5688 143.106L65.986 138.992L67.6351 139.16Z" fill="#1E1E1E"/>
<path d="M56.9441 134.664L53.9771 143.868L52.4257 143.368L52.7825 142.261L52.691 142.232C52.5572 142.368 52.3867 142.504 52.1796 142.639C51.9714 142.777 51.7199 142.871 51.425 142.92C51.1292 142.972 50.7851 142.935 50.3929 142.809C49.8758 142.642 49.4521 142.36 49.1218 141.961C48.7878 141.565 48.5816 141.07 48.5033 140.477C48.4212 139.887 48.5 139.219 48.7397 138.475C48.9767 137.74 49.2986 137.155 49.7055 136.718C50.1124 136.282 50.5672 135.995 51.0697 135.859C51.5723 135.723 52.0865 135.739 52.6124 135.909C52.9959 136.032 53.2934 136.199 53.505 136.408C53.7165 136.617 53.8703 136.837 53.9662 137.067C54.0582 137.299 54.1202 137.509 54.152 137.699L54.2174 137.72L55.3665 134.155L56.9441 134.664ZM53.5089 140.022C53.6485 139.59 53.7097 139.191 53.6926 138.826C53.6725 138.46 53.5758 138.148 53.4024 137.891C53.2251 137.635 52.9694 137.453 52.6353 137.345C52.2867 137.233 51.9647 137.231 51.6694 137.342C51.3732 137.455 51.1131 137.655 50.8891 137.942C50.6613 138.23 50.4799 138.584 50.345 139.003C50.2111 139.418 50.1517 139.806 50.1669 140.167C50.1821 140.528 50.2778 140.838 50.4541 141.097C50.6305 141.356 50.8944 141.542 51.2459 141.655C51.583 141.764 51.8977 141.767 52.1902 141.666C52.4826 141.565 52.7414 141.374 52.9664 141.094C53.1886 140.812 53.3694 140.455 53.5089 140.022Z" fill="#1E1E1E"/>
<path d="M41.9877 141.817L45.9111 133.3L47.4166 133.994L43.4932 142.511L41.9877 141.817Z" fill="#1E1E1E"/>
<path d="M37.0831 131.737L34.9479 135.208L33.5361 134.339L37.2212 128.349L38.5901 129.191L37.9351 130.256L37.9975 130.294C38.339 130.042 38.7301 129.904 39.1706 129.881C39.6086 129.857 40.0524 129.983 40.5022 130.26C40.8948 130.501 41.1883 130.802 41.3828 131.162C41.573 131.522 41.6495 131.922 41.6121 132.362C41.5732 132.804 41.4066 133.264 41.1123 133.742L38.7659 137.556L37.3541 136.688L39.5662 133.092C39.7997 132.713 39.8812 132.347 39.8108 131.995C39.7403 131.644 39.5361 131.364 39.1981 131.156C38.9901 131.028 38.7574 130.955 38.5 130.936C38.2427 130.918 37.99 130.97 37.742 131.094C37.4899 131.218 37.2702 131.432 37.0831 131.737Z" fill="#1E1E1E"/>
<path d="M27.1885 126.909L28.4571 127.746C28.3926 127.891 28.3586 128.049 28.3552 128.221C28.3494 128.39 28.3884 128.563 28.4721 128.74C28.5559 128.916 28.6964 129.086 28.8939 129.25C29.1595 129.47 29.4305 129.597 29.7069 129.632C29.981 129.665 30.1928 129.589 30.3424 129.404C30.4752 129.248 30.5238 129.072 30.4881 128.876C30.45 128.678 30.3198 128.433 30.0974 128.142L29.3373 127.179C28.9164 126.644 28.6808 126.153 28.6303 125.707C28.5775 125.259 28.7106 124.84 29.0296 124.45C29.3144 124.112 29.6636 123.893 30.0773 123.796C30.4866 123.699 30.9256 123.722 31.3942 123.865C31.8628 124.007 32.3227 124.266 32.774 124.639C33.4368 125.189 33.8554 125.77 34.0299 126.382C34.2024 126.997 34.1209 127.585 33.7855 128.148L32.4417 127.236C32.5878 126.945 32.6209 126.661 32.5408 126.385C32.4607 126.108 32.2737 125.848 31.9799 125.605C31.6767 125.354 31.3818 125.214 31.0953 125.187C30.8064 125.158 30.586 125.235 30.434 125.418C30.3055 125.573 30.2593 125.751 30.2954 125.951C30.3291 126.15 30.4482 126.379 30.6525 126.64L31.4155 127.599C31.8454 128.138 32.0787 128.638 32.1155 129.101C32.1504 129.566 32.0031 129.995 31.6735 130.388C31.3993 130.724 31.0692 130.938 30.6833 131.03C30.2931 131.123 29.878 131.1 29.4379 130.961C28.9936 130.823 28.5551 130.575 28.1227 130.216C27.4881 129.691 27.1006 129.141 26.9603 128.569C26.8176 127.995 26.8937 127.442 27.1885 126.909Z" fill="#1E1E1E"/>
</svg>
