<svg xmlns="http://www.w3.org/2000/svg" xmlns:xlink="http://www.w3.org/1999/xlink" id="Calque_1" x="0" y="0" version="1.1" viewBox="0 0 128 128" style="enable-background:new 0 0 128 128" xml:space="preserve"><style type="text/css">.st0{fill:#e44d26}.st1{fill:#f16529}.st2{fill:#ebebeb}.st3{fill:#fff}</style><path d="M27.9,107.1l-8-90.2h88.4l-8.1,90.2l-36.2,10L27.9,107.1z" class="st0"/><path d="M64,109.4l29.2-8.1l6.9-77.1H64V109.4z" class="st1"/><path d="M64,57.7H49.4l-1-11.3H64V35.3H36.3l0.3,3l2.7,30.5H64V57.7z M64,86.4L64,86.4l-12.4-3.3l-0.8-8.8H39.7	l1.6,17.4L63.9,98l0.1,0V86.4z" class="st2"/><path d="M64,57.7v11.1h13.6l-1.3,14.3L64,86.4V98l22.7-6.3l0.2-1.9l2.6-29.1l0.3-3h-3H64z M64,35.3v11.1h26.7l0.2-2.5	l0.5-5.6l0.3-3L64,35.3z" class="st3"/></svg>