<svg width="1920" height="1578" viewBox="0 0 1920 1578" fill="none" xmlns="http://www.w3.org/2000/svg">
<path d="M1962.5 1061.5C1820.25 1028.82 1742.99 969.022 1776 815C1804.5 682 1854 511.867 1570 382.5C1461.21 332.944 1310.5 351.576 1225.5 351.576C1116.5 351.576 874.5 334.5 874.5 146.5C874.5 -41.5 1091 -132.5 1091 -132.5" stroke="#FA2B43" stroke-width="2"/>
<path d="M-45.3753 143.001C81.967 214.315 60.2077 299.449 -14.7282 438.001C-79.4365 557.642 -171.227 804.501 140.619 904.909C254.412 941.548 657.772 1006 789.773 1216C906.212 1401.25 746.773 1798.5 512.773 1855.5C278.773 1912.5 -189.727 1596.5 -189.727 1596.5" stroke="#FA2B43" stroke-width="2"/>
</svg>
