<svg width="44" height="44" viewBox="0 0 44 44" fill="none" xmlns="http://www.w3.org/2000/svg">
<path d="M40.3337 22.0007C40.3337 28.9142 40.3337 32.3718 38.185 34.5187C36.0382 36.6673 32.5805 36.6673 25.667 36.6673H18.3337C11.4202 36.6673 7.96249 36.6673 5.81566 34.5187C3.66699 32.3718 3.66699 28.9142 3.66699 22.0007C3.66699 15.0872 3.66699 11.6295 5.81566 9.48265C7.96249 7.33398 11.4202 7.33398 18.3337 7.33398H25.667C32.5805 7.33398 36.0382 7.33398 38.185 9.48265C39.384 10.6798 39.9138 12.284 40.1467 14.6673" stroke="black" stroke-width="1.5" stroke-linecap="round"/>
<path d="M33 14.668L29.0418 17.968C25.6758 20.773 23.991 22.1755 22 22.1755C20.8083 22.1755 19.7285 21.6731 18.3333 20.6721M11 14.668L12.65 16.043L14.3 17.418" stroke="black" stroke-width="1.5" stroke-linecap="round"/>
</svg>
