<svg width="52" height="51" viewBox="0 0 52 51" fill="none" xmlns="http://www.w3.org/2000/svg">
<path d="M23.9262 37.0497C24.8797 33.1217 25.15 30.7168 25.0254 26.4337C20.7423 26.3091 18.4526 26.6956 14.5247 27.6491C14.4409 27.6694 14.3538 27.6788 14.2679 27.6764L1.65845 27.3196C1.14088 27.305 0.733113 26.8827 0.736347 26.3647L0.756752 23.0961C0.760148 22.5522 1.21374 22.1138 1.7572 22.1292L14.2774 22.4834C14.3783 22.4863 14.4791 22.5055 14.5739 22.5393C18.4542 23.9223 21.2207 24.2487 25.0254 24.1778C25.2035 19.8928 24.9039 17.7422 23.9994 13.8259C23.9801 13.7423 23.9718 13.6553 23.9753 13.5694L24.4895 0.954525C24.5106 0.436736 24.938 0.0236602 25.456 0.0204263L28.7247 1.91716e-05C29.2686 -0.00337658 29.7013 0.444775 29.6791 0.988471L29.1685 13.5141C29.1644 13.615 29.1439 13.7161 29.109 13.8113C27.6774 17.7091 27.1939 19.6957 27.2305 24.1778C31.7126 24.2144 33.8662 23.897 37.764 22.4654C37.8592 22.4304 37.9603 22.41 38.0613 22.4058L50.5869 21.8952C51.1306 21.8731 51.5787 22.3058 51.5753 22.8497L51.5549 26.1184C51.5517 26.6364 51.1386 27.0638 50.6208 27.0849L38.0059 27.5991C37.92 27.6026 37.833 27.5943 37.7494 27.575C33.8331 26.6705 31.5155 26.2556 27.2305 26.4337C27.1596 30.2384 27.653 33.1202 29.0361 37.0005C29.0698 37.0952 29.0891 37.196 29.0919 37.297L29.4462 49.8172C29.4615 50.3606 29.0232 50.8142 28.4793 50.8176L25.2106 50.838C24.6926 50.8413 24.2703 50.4335 24.2557 49.9159L23.8989 37.3065C23.8965 37.2206 23.9059 37.1335 23.9262 37.0497Z" fill="#1E1E1E"/>
</svg>
