<svg width="66" height="66" viewBox="0 0 66 66" fill="none" xmlns="http://www.w3.org/2000/svg">
<g clip-path="url(#clip0_53_672)">
<path fill-rule="evenodd" clip-rule="evenodd" d="M57.4362 19.3328C48.919 40.6798 28.2485 51.3251 6.8883 42.2962C6.1772 41.9955 5.35703 42.328 5.05541 43.0309C4.75515 43.7455 5.08774 44.5668 5.79884 44.8675C28.6953 54.5563 50.9023 43.246 60.0328 20.3728C60.3189 19.6598 59.9687 18.8403 59.2519 18.5523C58.5364 18.276 57.7223 18.6198 57.4362 19.3328Z" fill="#1E1E1E"/>
<path d="M22.789 31.7414C25.0231 31.4861 26.6273 29.468 26.3719 27.2339C26.1166 24.9998 24.0985 23.3957 21.8644 23.651C19.6303 23.9063 18.0262 25.9244 18.2815 28.1585C18.5368 30.3926 20.5549 31.9967 22.789 31.7414Z" fill="#1E1E1E"/>
<path d="M39.0438 25.5244C41.2342 25.2741 42.807 23.2955 42.5567 21.105C42.3064 18.9146 40.3277 17.3418 38.1373 17.5922C35.9468 17.8425 34.3741 19.8211 34.6244 22.0115C34.8747 24.202 36.8533 25.7747 39.0438 25.5244Z" fill="#1E1E1E"/>
</g>
<defs>
<clipPath id="clip0_53_672">
<rect width="58" height="58" fill="white" transform="translate(0.805359 7.43311) rotate(-6.51943)"/>
</clipPath>
</defs>
</svg>
