<svg width="36" height="30" viewBox="0 0 36 30" fill="none" xmlns="http://www.w3.org/2000/svg">
<path d="M18.85 28.1756H3.55C2.8737 28.1756 2.2251 27.9069 1.74688 27.4287C1.26866 26.9505 1 26.3019 1 25.6256V3.52559C1 2.84928 1.26866 2.20068 1.74688 1.72246C2.2251 1.24425 2.8737 0.975586 3.55 0.975586H32.45C33.1263 0.975586 33.7749 1.24425 34.2531 1.72246C34.7313 2.20068 35 2.84928 35 3.52559V15.3754" stroke="#1E1E1E" stroke-width="1.5" stroke-linecap="round" stroke-linejoin="round"/>
<path d="M1 3.52559C1 2.84928 1.26866 2.20068 1.74688 1.72246C2.2251 1.24425 2.8737 0.975586 3.55 0.975586H32.45C33.1263 0.975586 33.7749 1.24425 34.2531 1.72246C34.7313 2.20068 35 2.84928 35 3.52559V11.1756H1V3.52559Z" stroke="#1E1E1E" stroke-width="1.5"/>
<path d="M24.7998 23.9252H34.9998M29.8998 18.8252V29.0252" stroke="#1E1E1E" stroke-width="1.5" stroke-linecap="round" stroke-linejoin="round"/>
<path d="M6.0998 5.12539C5.57513 5.12539 5.1498 5.55072 5.1498 6.07539C5.1498 6.60006 5.57513 7.02539 6.0998 7.02539C6.62448 7.02539 7.0498 6.60006 7.0498 6.07539C7.0498 5.55072 6.62448 5.12539 6.0998 5.12539Z" fill="black" stroke="#1E1E1E" stroke-width="1.5"/>
<path d="M11.2004 5.12539C10.6757 5.12539 10.2504 5.55072 10.2504 6.07539C10.2504 6.60006 10.6757 7.02539 11.2004 7.02539C11.7251 7.02539 12.1504 6.60006 12.1504 6.07539C12.1504 5.55072 11.7251 5.12539 11.2004 5.12539Z" fill="black" stroke="#1E1E1E" stroke-width="1.5"/>
</svg>
